<svg id="Layer_1" data-name="Layer 1" xmlns="http://www.w3.org/2000/svg" xmlns:xlink="http://www.w3.org/1999/xlink" viewBox="0 0 745.73 830"><defs><style>.cls-1{fill:#eaeaea;}.cls-2{fill:#403e56;}.cls-3{fill:#6466af;}.cls-4{isolation:isolate;font-size:78.14px;}.cls-4,.cls-7{fill:#fff;font-family:Linotte-Bold;font-weight:700;}.cls-5{letter-spacing:-0.03em;}.cls-6{letter-spacing:-0.02em;}.cls-7{font-size:53px;letter-spacing:-0.01em;}.cls-8{letter-spacing:0em;}</style><image id="image" width="308" height="282" xlink:href="../Documents/Flutter/wallpaper8_kelompok8/assets/images/atas_daftar.png"/></defs><title>splash logo tubes3</title><image width="150" height="222" transform="translate(8.65 457.69) scale(1.3)" xlink:href="../Documents/Flutter/wallpaper8_kelompok8/assets/images/bawah_awal.png"/><image width="252" height="294" transform="translate(9.77 9.77) scale(0.59)" xlink:href="../Documents/Flutter/wallpaper8_kelompok8/assets/images/atas.png"/><use transform="translate(745.73 0) rotate(90)" xlink:href="#image"/><use transform="translate(928.87 1089.64) rotate(180) scale(0.4)" xlink:href="#image"/><path id="garis" class="cls-1" d="M904,1089.64H208a25,25,0,0,1-24.91-24.91V368.81A25,25,0,0,1,208,343.9H904a25,25,0,0,1,24.91,24.91v695.92A25,25,0,0,1,904,1089.64ZM208,353.67a15.22,15.22,0,0,0-15.14,15.14v695.92A15.22,15.22,0,0,0,208,1079.87H904a15.22,15.22,0,0,0,15.14-15.14V368.81A15.22,15.22,0,0,0,904,353.67Z" transform="translate(-183.13 -343.9)"/><path class="cls-2" d="M394.6,635C423.9,743.87,525,811.27,525,811.27s53.23-108.91,23.44-217.81C519.13,484.55,418,417.16,418,417.16S365.29,526.06,394.6,635Z" transform="translate(-183.13 -343.9)"/><path class="cls-3" d="M438.06,611.53c80.58,78.62,90.84,199.74,90.84,199.74s-121.12-6.84-202.19-85.47-90.83-199.74-90.83-199.74S357,532.9,438.06,611.53Z" transform="translate(-183.13 -343.9)"/><text class="cls-4" transform="translate(273.16 577.88)"><tspan class="cls-5">W</tspan><tspan x="65.24" y="0">allpape</tspan><tspan class="cls-6" x="328.33" y="0">r</tspan><tspan x="356.3" y="0" xml:space="preserve"> 8</tspan></text><text class="cls-7" transform="translate(161.14 817.23)">K<tspan class="cls-8" x="32.6" y="0">elompok 8 - 2020</tspan></text></svg>